{
    "asset" : {
        "copyright" : "Matthew Herman",
        "generator" : "Khronos glTF Blender I/O v3.2.43",
        "version" : "2.0"
    },
    "scene" : 0,
    "scenes" : [
        {
            "name" : "Scene",
            "nodes" : [
                0
            ]
        }
    ],
    "nodes" : [
        {
            "mesh" : 0,
            "name" : "55gal_drum"
        }
    ],
    "meshes" : [
        {
            "name" : "Cylinder",
            "primitives" : [
                {
                    "attributes" : {
                        "POSITION" : 0,
                        "NORMAL" : 1,
                        "TEXCOORD_0" : 2
                    },
                    "indices" : 3
                }
            ]
        }
    ],
    "accessors" : [
        {
            "bufferView" : 0,
            "componentType" : 5126,
            "count" : 621,
            "max" : [
                0.2717958390712738,
                0.44068998098373413,
                0.2717958390712738
            ],
            "min" : [
                -0.2717958390712738,
                -0.44068998098373413,
                -0.2717958390712738
            ],
            "type" : "VEC3"
        },
        {
            "bufferView" : 1,
            "componentType" : 5126,
            "count" : 621,
            "type" : "VEC3"
        },
        {
            "bufferView" : 2,
            "componentType" : 5126,
            "count" : 621,
            "type" : "VEC2"
        },
        {
            "bufferView" : 3,
            "componentType" : 5123,
            "count" : 720,
            "type" : "SCALAR"
        }
    ],
    "bufferViews" : [
        {
            "buffer" : 0,
            "byteLength" : 7452,
            "byteOffset" : 0
        },
        {
            "buffer" : 0,
            "byteLength" : 7452,
            "byteOffset" : 7452
        },
        {
            "buffer" : 0,
            "byteLength" : 4968,
            "byteOffset" : 14904
        },
        {
            "buffer" : 0,
            "byteLength" : 1440,
            "byteOffset" : 19872
        }
    ],
    "buffers" : [
        {
            "byteLength" : 21312,
            "uri" : "data:application/octet-stream;base64,"
        }
    ]
}
